<svg width="190" height="40" viewBox="0 0 190 40" fill="none" xmlns="http://www.w3.org/2000/svg">
<g clip-path="url(#clip0_12_10150)">
<path d="M30.5066 10.2192H29.7999V9.51182C29.7999 4.26697 25.5355 0 20.2937 0V6.34138C22.0438 6.34138 23.4623 7.76117 23.4623 9.51157V10.2189V16.5603H30.5064C32.053 16.5603 33.3402 17.6693 33.6184 19.1355H39.9923C39.6842 14.1675 35.5492 10.2192 30.5066 10.2192Z" fill="#79CFF0"/>
<path d="M9.48595 29.7783H10.1926V30.4854C10.1926 35.7305 14.4573 39.9975 19.6994 39.9975V33.6561C17.949 33.6561 16.5303 32.2363 16.5303 30.4854V29.7783V23.4371H9.48595C7.93929 23.4371 6.6521 22.3279 6.37363 20.8615H0C0.308622 25.83 4.44411 29.7783 9.48595 29.7783Z" fill="#79CFF0"/>
<path d="M29.7797 30.5072V29.8003H30.4864C35.7284 29.8003 39.9928 25.5331 39.9928 20.2883H33.6552C33.6552 22.0394 32.2365 23.4589 30.4864 23.4589H29.7797H23.4423H23.442V30.5072C23.442 32.0547 22.334 33.3427 20.8684 33.6213V39.9987C25.8337 39.6902 29.7797 35.552 29.7797 30.5072Z" fill="#5924B0"/>
<path d="M10.2132 9.49311V10.2H9.50622C4.26471 10.2 0 14.4672 0 19.7123H6.33765C6.33765 17.9611 7.75635 16.5416 9.50596 16.5416H10.2129H16.5506V9.49336C16.5506 7.94604 17.6586 6.65809 19.1242 6.37971V0.0020752C14.1594 0.310372 10.2132 4.44804 10.2132 9.49311Z" fill="#5924B0"/>
<ellipse cx="35.7333" cy="4.27133" rx="4.26674" ry="4.26925" fill="#79CFF0"/>
<ellipse cx="4.2853" cy="35.7305" rx="4.26699" ry="4.26951" fill="#79CFF0"/>
<ellipse cx="4.3251" cy="4.27132" rx="4.26699" ry="4.26951" fill="#5924B0"/>
<ellipse cx="35.7201" cy="35.7257" rx="4.26674" ry="4.26925" fill="#5924B0"/>
<path d="M50.4509 35.3684V5.47037H55.918L69.9701 26.5272V5.47037H75.4372V35.3684H69.9701L55.918 14.3544V35.3684H50.4509Z" fill="#5924B0"/>
<path d="M92.7782 35.881C90.5856 35.881 88.6067 35.4467 86.8413 34.5783C85.0758 33.7098 83.6735 32.3929 82.6342 30.6275C81.5949 28.862 81.0752 26.6268 81.0752 23.9217V5.47037H86.5423V23.9645C86.5423 26.2994 87.1046 28.0363 88.2294 29.1753C89.3541 30.3142 90.9131 30.8837 92.9063 30.8837C94.871 30.8837 96.4229 30.3142 97.5618 29.1753C98.7008 28.0363 99.2703 26.2994 99.2703 23.9645V5.47037H104.737V23.9217C104.737 26.6268 104.196 28.862 103.114 30.6275C102.032 32.3929 100.587 33.7098 98.7791 34.5783C96.971 35.4467 94.9707 35.881 92.7782 35.881Z" fill="#5924B0"/>
<path fill-rule="evenodd" clip-rule="evenodd" d="M110.333 5.47037V35.3684H115.8V23.5801H120.327L125.88 35.3684H132.158L125.965 22.854C127.987 22.1706 129.474 21.0743 130.428 19.5652C131.382 18.056 131.859 16.3903 131.859 14.5679C131.859 12.8879 131.475 11.3574 130.706 9.97643C129.937 8.59543 128.777 7.49917 127.225 6.68765C125.673 5.87613 123.701 5.47037 121.309 5.47037H110.333ZM120.968 19.5652H115.8V10.0405H120.925C122.804 10.0405 124.164 10.4676 125.004 11.3218C125.844 12.1761 126.264 13.3151 126.264 14.7388C126.264 16.191 125.837 17.3584 124.983 18.2411C124.128 19.1238 122.79 19.5652 120.968 19.5652Z" fill="#5924B0"/>
<path d="M147.15 35.881C144.957 35.881 143.021 35.5037 141.341 34.7491C139.661 33.9945 138.337 32.9125 137.369 31.503C136.401 30.0936 135.902 28.378 135.874 26.3563H141.64C141.697 27.7515 142.202 28.9261 143.156 29.88C144.11 30.8339 145.427 31.3108 147.107 31.3108C148.559 31.3108 149.713 30.962 150.567 30.2644C151.421 29.5668 151.848 28.6343 151.848 27.4668C151.848 26.2424 151.471 25.2885 150.716 24.6051C149.962 23.9217 148.958 23.3665 147.705 22.9394C146.452 22.5123 145.114 22.0567 143.69 21.5726C141.384 20.7753 139.626 19.7503 138.415 18.4974C137.205 17.2445 136.6 15.5788 136.6 13.5001C136.572 11.7347 136.992 10.2185 137.86 8.95135C138.729 7.68424 139.917 6.70188 141.427 6.00426C142.936 5.30664 144.673 4.95782 146.637 4.95782C148.631 4.95782 150.389 5.31375 151.912 6.02561C153.436 6.73747 154.632 7.73407 155.5 9.01542C156.368 10.2968 156.831 11.8201 156.888 13.5856H151.037C151.008 12.532 150.602 11.5995 149.819 10.7879C149.036 9.97643 147.947 9.57067 146.552 9.57067C145.356 9.5422 144.352 9.83406 143.541 10.4463C142.729 11.0585 142.323 11.9483 142.323 13.1157C142.323 14.1123 142.637 14.9025 143.263 15.4862C143.89 16.0699 144.744 16.5611 145.826 16.9598C146.908 17.3584 148.146 17.7855 149.542 18.2411C151.022 18.7536 152.375 19.3516 153.599 20.035C154.824 20.7184 155.806 21.6224 156.546 22.7472C157.287 23.8719 157.657 25.317 157.657 27.0824C157.657 28.6485 157.258 30.1007 156.461 31.439C155.664 32.7773 154.482 33.8522 152.916 34.6637C151.35 35.4752 149.428 35.881 147.15 35.881Z" fill="#5924B0"/>
<path fill-rule="evenodd" clip-rule="evenodd" d="M171.453 5.47037L160.519 35.3684H166.242L168.676 28.4492H180.337L182.729 35.3684H188.537L177.603 5.47037H171.453ZM178.842 24.178H170.171L174.485 11.749L178.842 24.178Z" fill="#5924B0"/>
</g>
<defs>
<clipPath id="clip0_12_10150">
<rect width="190" height="40" fill="white"/>
</clipPath>
</defs>
</svg>
